<?xml version="1.0" encoding="utf-8"?>
<!-- Generator: Adobe Illustrator 16.0.0, SVG Export Plug-In . SVG Version: 6.00 Build 0)  -->
<!DOCTYPE svg PUBLIC "-//W3C//DTD SVG 1.1//EN" "http://www.w3.org/Graphics/SVG/1.1/DTD/svg11.dtd">
<svg version="1.1"
	 id="svg2" xmlns:dc="http://purl.org/dc/elements/1.1/" xmlns:rdf="http://www.w3.org/1999/02/22-rdf-syntax-ns#" xmlns:cc="http://creativecommons.org/ns#"
	 xmlns="http://www.w3.org/2000/svg" xmlns:xlink="http://www.w3.org/1999/xlink" x="0px" y="0px" width="1000px"
	 height="328.561px" viewBox="0 0 1000 328.561" enable-background="new 0 0 1000 328.561" xml:space="preserve">
<g>
	<path fill="#FFFFFF" d="M649.087,135.563L649.087,135.563c-17.305,0-34.291,14.054-34.291,37.604
		c0,22.664,16.355,36.938,33.934,36.938c16.558,0,33.122-13.205,33.122-37.166C681.852,149.367,665.252,135.563,649.087,135.563z"/>
	<path fill="#FFFFFF" d="M515.512,135.547c-19.85,0-35.102,15.869-35.102,37.116c0,21.713,15.443,37.393,35.021,37.393
		c17.816,0,34.485-14.688,34.485-37.213C549.917,149.829,533.178,135.547,515.512,135.547z"/>
	<path fill="#FFFFFF" d="M381.398,135.547c-19.85,0-35.103,15.869-35.103,37.116c0,21.713,15.444,37.393,35.022,37.393
		c17.817,0,34.486-14.688,34.486-37.213C415.804,149.829,399.063,135.547,381.398,135.547z"/>
	<path fill="#FFFFFF" d="M0-2.11v332.781h1000V-2.11H0z M222.422,234.245c-58.09,0-97.547-47.229-97.547-95.663
		c0-49.428,41.946-95.19,96.166-95.189c42.58,0,65.926,25.991,65.926,25.991l-18.189,18.836c0,0-17.354-18.775-46.807-18.775
		c-38.174,0-68.62,30.282-68.62,69.602c0,40.363,31.938,69.162,68.54,69.162c28.607,0,58.915-15.535,61.982-51.963h-62.087v-25.978
		h87.544l-0.001-0.007c0,0,1.586,6.311,1.586,17.229C310.913,199.245,273.513,234.245,222.422,234.245z M381.463,234.134
		c-37.118,0-62.087-28.605-62.087-61.844c0-32.753,25.743-60.837,61.665-60.837c29.53,0,61.551,20.924,61.551,61.552
		C442.592,208.452,415.064,234.134,381.463,234.134z M515.577,234.134c-37.117,0-62.087-28.605-62.087-61.844
		c0-32.753,25.742-60.837,61.665-60.837c29.53,0,61.551,20.924,61.551,61.552C576.706,208.452,549.179,234.134,515.577,234.134z
		 M705.492,225.43c0,43.307-24.985,63.955-57.769,63.955c-29.972,0-46.808-18.443-55.17-36.127l23.574-9.855
		c3.267,7.906,12.664,21.838,31.401,21.838c19.395,0,32.244-12.672,32.244-33.836v-12.096c-6.863,7.965-16.159,14.904-33.642,14.904
		c-28.274,0-58.32-24.482-58.32-61.404c0-32.414,25.917-61.292,58.889-61.292v0.001c14.352,0,25.166,5.557,33.074,14.078v-10.391
		h25.718V225.43z M750.432,230.54h-27.017V49.737h27.017V230.54z M822.961,210.038c15.353,0,24.551-8.346,30.053-16.885
		l21.205,14.109c-9.506,12.721-25.435,26.918-51.388,26.918c-31.097,0-60.204-22.914-60.204-61.551
		c0-36.513,26.114-61.258,57.216-61.258l0.004,0.004c24.527,0,43.063,16.357,51.008,35.942l4.271,10.002l-82.25,34.128
		C797.787,200.594,805.717,210.038,822.961,210.038z"/>
	<path fill="#FFFFFF" d="M820.915,134.963c-17.758,0-34.597,18.287-32.229,36.062l54.928-22.959
		C840.188,140.921,832.122,134.963,820.915,134.963z"/>
</g>
</svg>
